# xmcd CD database file
#
# Track frame offsets:
#	150
#	24282
#	44765
#	60920
#	83089
#	98584
#	117364
#	130804
#	150195
#	167337
#	180891
#	195743
#	215358
#	235867
#	245683
#	267032
#	278871
#
# Disc length: 3892 seconds
#
# Revision: 0
# Processed by: cddbd v1.5.2PL0 Copyright (c) Steve Scherf et al.
# Submitted via: CDex 1.51
#
DISCID=d00f3211
DTITLE=Various Artist - Cool Yule: The Christmas Songbook - CD2
DYEAR=2005
DGENRE=Jazz
TTITLE0=Betty Carter - Let It Snow
TTITLE1=Mark Whitfield - Those Soulfull Jingle Bells
TTITLE2=Ella Fitzgerald - What are You Doing on New Year's Eve?
TTITLE3=Abbey Lincoln - Christmas Cheer
TTITLE4=Christian McBride - Double Decker [Deck the Halls]
TTITLE5=Shirley Horn - Winter Wonderland
TTITLE6=Ella Fitzgerald - Sleigh Ride
TTITLE7=Dianne Schuur - I'll be Home for Christmas
TTITLE8=Antonio Carlos Jobim - Looks Like December
TTITLE9=Matt Dusk - Christmas Blues
TTITLE10=Ella Fitzgerald - Good Morning Blues
TTITLE11=Yusef Lateef - Warm Fire
TTITLE12=Betty Carter - Home for the Holidays
TTITLE13=Ramsey lewis - Snowfall
TTITLE14=Abbey Lincoln - This Christmas
TTITLE15=Matt Dusk - It's A Marshmellow World [Roasted remix]
TTITLE16=Ella Fitzgerald - Rudolph, The Red-Nosed Reindeer
EXTD=YEAR: 2005
EXTT0=
EXTT1=
EXTT2=
EXTT3=
EXTT4=
EXTT5=
EXTT6=
EXTT7=
EXTT8=
EXTT9=
EXTT10=
EXTT11=
EXTT12=
EXTT13=
EXTT14=
EXTT15=
EXTT16=
PLAYORDER=
